<svg width="35" height="33" viewBox="0 0 35 33" fill="none" xmlns="http://www.w3.org/2000/svg">
<g clip-path="url(#clip0)">
<path d="M17.3777 0C8.04762 0 0.481934 7.56436 0.481934 16.8958C0.481934 24.3609 5.32307 30.6941 12.0363 32.9282C12.8807 33.0846 13.1908 32.5617 13.1908 32.1154C13.1908 31.7126 13.175 30.3815 13.1678 28.9697C8.46728 29.9918 7.47544 26.9762 7.47544 26.9762C6.70688 25.0233 5.59949 24.5041 5.59949 24.5041C4.06661 23.4554 5.71504 23.4769 5.71504 23.4769C7.41171 23.5961 8.30509 25.2181 8.30509 25.2181C9.812 27.8011 12.2576 27.0543 13.2218 26.6227C13.3734 25.5305 13.8113 24.7853 14.2944 24.3634C10.5417 23.936 6.59663 22.4873 6.59663 16.0134C6.59663 14.1688 7.25667 12.6615 8.33756 11.4783C8.16211 11.0527 7.58384 9.33431 8.50121 7.00702C8.50121 7.00702 9.92 6.55291 13.1487 8.73894C14.4964 8.36446 15.9418 8.17683 17.3777 8.17047C18.8136 8.17683 20.2601 8.36446 21.6103 8.73894C24.8353 6.55291 26.2521 7.00702 26.2521 7.00702C27.1717 9.33431 26.5931 11.0527 26.4177 11.4783C27.501 12.6615 28.1565 14.1687 28.1565 16.0134C28.1565 22.5027 24.204 23.9317 20.4417 24.3499C21.0477 24.8742 21.5877 25.9025 21.5877 27.4787C21.5877 29.7393 21.5681 31.5588 21.5681 32.1154C21.5681 32.565 21.8722 33.0919 22.7287 32.926C29.4383 30.6893 34.2733 24.3584 34.2733 16.8958C34.2733 7.56436 26.7087 0 17.3777 0Z" fill="url(#paint0_linear)"/>
<path d="M6.80995 24.0685C6.77285 24.1524 6.6406 24.1775 6.52042 24.12C6.39784 24.0649 6.32894 23.9504 6.36869 23.8661C6.40513 23.7797 6.53738 23.7556 6.65969 23.8137C6.78252 23.8687 6.85249 23.9842 6.80995 24.0685V24.0685ZM7.64106 24.81C7.56049 24.8848 7.40294 24.85 7.296 24.732C7.18549 24.6142 7.16482 24.4567 7.24657 24.3808C7.32966 24.3062 7.48244 24.3411 7.59322 24.459C7.70374 24.5781 7.7252 24.7346 7.64093 24.8102L7.64106 24.81ZM8.21125 25.7588C8.10763 25.8307 7.93828 25.7633 7.83373 25.613C7.73024 25.4629 7.73024 25.2827 7.83598 25.2105C7.94093 25.1382 8.10763 25.2032 8.21364 25.3523C8.31699 25.505 8.31699 25.6853 8.21112 25.7589L8.21125 25.7588ZM9.1754 26.8577C9.08277 26.9597 8.8856 26.9324 8.74116 26.793C8.59354 26.6568 8.55233 26.4635 8.64522 26.3613C8.73891 26.259 8.93728 26.2878 9.08277 26.426C9.22946 26.5619 9.27425 26.7567 9.17553 26.8577H9.1754ZM10.4215 27.2287C10.3808 27.361 10.1908 27.4211 9.99948 27.365C9.8084 27.307 9.68331 27.152 9.72187 27.0183C9.76163 26.8851 9.95244 26.8225 10.1452 26.8826C10.3361 26.9403 10.4614 27.0941 10.4217 27.2287H10.4215ZM11.8399 27.386C11.8447 27.5254 11.6824 27.641 11.4815 27.6435C11.2794 27.6479 11.116 27.5351 11.1139 27.3981C11.1139 27.2574 11.2725 27.1429 11.4745 27.1396C11.6753 27.1356 11.8399 27.2475 11.8399 27.386V27.386ZM13.2331 27.3326C13.2573 27.4686 13.1176 27.6082 12.9182 27.6453C12.722 27.6811 12.5405 27.5972 12.5155 27.4625C12.4911 27.3231 12.6334 27.1835 12.8291 27.1474C13.0289 27.1127 13.2077 27.1944 13.2331 27.3326" fill="url(#paint1_linear)"/>
</g>
<defs>
<linearGradient id="paint0_linear" x1="1.15654" y1="29.5242" x2="36.3203" y2="25.6636" gradientUnits="userSpaceOnUse">
<stop stop-color="#28F5BE"/>
<stop offset="1" stop-color="#3B37FF"/>
</linearGradient>
<linearGradient id="paint1_linear" x1="6.49474" y1="27.2503" x2="13.4858" y2="25.9204" gradientUnits="userSpaceOnUse">
<stop stop-color="#28F5BE"/>
<stop offset="1" stop-color="#3B37FF"/>
</linearGradient>
<clipPath id="clip0">
<rect width="33.9227" height="33" fill="white" transform="translate(0.481934)"/>
</clipPath>
</defs>
</svg>
