<svg width="35" height="33" viewBox="0 0 27 27" fill="none" xmlns="http://www.w3.org/2000/svg">
<path d="M18.9566 0H8.04345C3.60827 0 0 3.60827 0 8.04345V18.9566C0 23.3917 3.60827 27 8.04345 27H18.9566C23.3917 27 27 23.3917 27 18.9566V8.04345C27 3.60827 23.3917 0 18.9566 0ZM24.2838 18.9566C24.2838 21.8987 21.8987 24.2838 18.9566 24.2838H8.04345C5.10131 24.2838 2.7162 21.8987 2.7162 18.9566V8.04345C2.7162 5.10126 5.10131 2.7162 8.04345 2.7162H18.9566C21.8987 2.7162 24.2838 5.10126 24.2838 8.04345V18.9566Z" fill="url(#paint0_linear)"/>
<path d="M13.5 6.51685C9.64949 6.51685 6.51685 9.64948 6.51685 13.5C6.51685 17.3504 9.64949 20.4831 13.5 20.4831C17.3505 20.4831 20.4832 17.3505 20.4832 13.5C20.4832 9.64944 17.3505 6.51685 13.5 6.51685ZM13.5 17.767C11.1434 17.767 9.23304 15.8566 9.23304 13.5C9.23304 11.1434 11.1435 9.23304 13.5 9.23304C15.8566 9.23304 17.767 11.1434 17.767 13.5C17.767 15.8566 15.8566 17.767 13.5 17.767Z" fill="url(#paint1_linear)"/>
<path d="M20.4968 8.24237C21.4209 8.24237 22.1701 7.4932 22.1701 6.56906C22.1701 5.64492 21.4209 4.89575 20.4968 4.89575C19.5727 4.89575 18.8235 5.64492 18.8235 6.56906C18.8235 7.4932 19.5727 8.24237 20.4968 8.24237Z" fill="url(#paint2_linear)"/>
<defs>
<linearGradient id="paint0_linear" x1="0.539021" y1="24.1875" x2="28.6519" y2="21.1772" gradientUnits="userSpaceOnUse">
<stop stop-color="#28F5BE"/>
<stop offset="1" stop-color="#3B37FF"/>
</linearGradient>
<linearGradient id="paint1_linear" x1="6.79567" y1="19.0283" x2="21.3377" y2="17.4712" gradientUnits="userSpaceOnUse">
<stop stop-color="#28F5BE"/>
<stop offset="1" stop-color="#3B37FF"/>
</linearGradient>
<linearGradient id="paint2_linear" x1="18.8903" y1="7.89376" x2="22.3749" y2="7.52065" gradientUnits="userSpaceOnUse">
<stop stop-color="#28F5BE"/>
<stop offset="1" stop-color="#3B37FF"/>
</linearGradient>
</defs>
</svg>
