<svg  width="35" height="33" viewBox="0 0 27 26" fill="none" xmlns="http://www.w3.org/2000/svg">
<g clip-path="url(#clip0)">
<path d="M13.5 0.000488281C6.32024 0.000488281 0.5 5.82073 0.5 13.0005C0.5 20.1802 6.32024 26.0004 13.5 26.0004C20.6797 26.0004 26.5 20.1802 26.5 13.0005C26.4999 5.82073 20.6796 0.000488281 13.5 0.000488281ZM10.0316 19.2854H7.17728V10.064H10.0316V19.2854ZM8.59082 8.85639C7.65864 8.85639 6.90295 8.09454 6.90295 7.1549C6.90295 6.21515 7.65874 5.45335 8.59082 5.45335C9.52289 5.45335 10.2786 6.21515 10.2786 7.1549C10.2786 8.09459 9.52294 8.85639 8.59082 8.85639V8.85639ZM20.728 19.2854H17.8875V14.4449C17.8875 13.1173 17.3832 12.3762 16.3335 12.3762C15.191 12.3762 14.5941 13.1481 14.5941 14.4449V19.2854H11.8565V10.064H14.5941V11.306C14.5941 11.306 15.4176 9.78272 17.3729 9.78272C19.3283 9.78272 20.728 10.9766 20.728 13.4465L20.728 19.2854V19.2854Z" fill="url(#paint0_linear)"/>
</g>
<defs>
<linearGradient id="paint0_linear" x1="1.01906" y1="23.2921" x2="28.0907" y2="20.3933" gradientUnits="userSpaceOnUse">
<stop stop-color="#28F5BE"/>
<stop offset="1" stop-color="#3B37FF"/>
</linearGradient>
<clipPath id="clip0">
<rect width="26" height="26" fill="white" transform="translate(0.5)"/>
</clipPath>
</defs>
</svg>
