<svg width="57" height="52" viewBox="0 0 57 52" fill="none" xmlns="http://www.w3.org/2000/svg">
<path d="M37.7504 20.6758C37.6451 20.7368 36.7083 19.1792 34.8182 16.5075C33.8759 15.1717 32.6842 13.5643 31.2043 11.7795C29.5386 9.76079 27.7247 7.86913 25.7778 6.12017C24.6555 5.1077 23.4586 4.18126 22.1971 3.34873C20.8769 2.44729 19.4075 1.78673 17.857 1.39764C17.0895 1.21226 16.2903 1.20089 15.5179 1.36439C14.7636 1.54898 14.0926 1.98009 13.6111 2.58936C13.0976 3.25559 12.7396 4.0283 12.5636 4.85085C12.3528 5.73549 12.2412 6.64088 12.231 7.55023C12.2318 9.48717 12.4437 11.4183 12.8629 13.3093C13.2881 15.3057 13.8436 17.272 14.5257 19.1958C17.4785 27.3314 21.8409 34.8834 27.4129 41.5059C28.7367 43.0604 30.1585 44.5286 31.6699 45.9014C33.0983 47.2112 34.6651 48.3617 36.3425 49.3325C37.1373 49.7756 37.9772 50.1324 38.8479 50.3967C39.6494 50.6514 40.4971 50.7271 41.3311 50.6184C42.1003 50.5049 42.8091 50.1359 43.3432 49.5708C43.8723 48.9875 44.2627 48.2921 44.485 47.5366C44.9233 45.9995 45.0847 44.3966 44.9617 42.803C44.8799 41.2952 44.6817 39.796 44.3686 38.3188C43.8202 35.7574 43.0791 33.2412 42.1515 30.7915C41.3477 28.6187 40.5495 26.784 39.8678 25.2986C38.4987 22.322 37.6174 20.7368 37.7227 20.6758C38.0266 20.9993 38.2874 21.3608 38.4987 21.7511C38.9532 22.4883 39.6073 23.5913 40.3722 25.0491C41.1371 26.5069 42.0351 28.325 42.9053 30.4978C43.9192 32.9652 44.7329 35.5102 45.3386 38.1081C45.6946 39.6302 45.9317 41.1777 46.0481 42.7365C46.2072 44.4696 46.0552 46.2173 45.5991 47.8969C45.3319 48.8307 44.8583 49.6926 44.2134 50.4189C43.5017 51.1907 42.5508 51.7003 41.514 51.8656C40.4962 52.0201 39.4567 51.9463 38.471 51.6494C37.5075 51.3683 36.5781 50.9817 35.6995 50.4965C33.9202 49.4967 32.2581 48.3013 30.7442 46.9324C29.1683 45.5298 27.687 44.0244 26.3099 42.4261C20.5959 35.7053 16.1453 28.006 13.1733 19.7002C12.4836 17.7072 11.9281 15.6703 11.5104 13.6031C11.0795 11.5998 10.8732 9.55483 10.8951 7.5059C10.9167 6.49828 11.0505 5.49621 11.2942 4.51827C11.527 3.50737 11.9814 2.56077 12.6245 1.74683C13.2901 0.935217 14.2065 0.367833 15.2297 0.133868C16.1828 -0.0632759 17.1681 -0.0424407 18.112 0.194832C19.7928 0.640026 21.3808 1.38146 22.8012 2.38428C24.0925 3.26644 25.3155 4.24477 26.4596 5.31092C28.412 7.15175 30.2137 9.14617 31.8472 11.275C33.2884 13.1319 34.4191 14.8003 35.3004 16.1916C36.1818 17.5829 36.8137 18.7025 37.2183 19.4674C37.4479 19.8451 37.6268 20.2514 37.7504 20.6758Z" fill="url(#paint0_linear)"/>
<path d="M20.6338 20.6426C20.7336 20.7035 19.8357 22.2167 18.4167 25.0769C17.7183 26.4958 16.8979 28.2529 16.072 30.3371C15.1292 32.6864 14.3749 35.107 13.8161 37.5761C13.4938 38.9983 13.2862 40.4441 13.1953 41.8995C13.0656 43.4362 13.2159 44.9837 13.6387 46.4668C13.86 47.1992 14.2383 47.8745 14.7473 48.4456C15.2633 48.9954 15.9373 49.3712 16.6762 49.521C17.4751 49.6761 18.2983 49.6533 19.0874 49.4544C19.9433 49.2567 20.773 48.959 21.5595 48.5676C23.2304 47.7257 24.7984 46.6934 26.2321 45.4913C27.7518 44.2329 29.1851 42.8736 30.5223 41.4228C36.1546 35.2356 40.5951 28.0609 43.6202 20.2601C44.3227 18.415 44.8986 16.5242 45.344 14.6008C45.7799 12.7851 46.005 10.9252 46.0147 9.05792C46.0121 8.18046 45.9079 7.30627 45.7043 6.45277C45.53 5.65767 45.1838 4.91036 44.6899 4.26333C44.2244 3.66786 43.5852 3.232 42.8608 3.01618C42.1232 2.81901 41.3514 2.78497 40.5993 2.91641C39.0843 3.19905 37.6328 3.75299 36.3146 4.55157C35.0547 5.28677 33.8538 6.11885 32.7229 7.04032C30.7646 8.64399 28.9353 10.3991 27.252 12.2894C25.7555 13.9523 24.5471 15.4766 23.5882 16.7237C21.6703 19.2402 20.717 20.7202 20.6172 20.6592C20.7417 20.247 20.9286 19.8563 21.1715 19.5007C21.5872 18.7746 22.2247 17.7104 23.1281 16.3967C24.2195 14.7908 25.3905 13.2406 26.6368 11.7518C28.2886 9.76512 30.1058 7.92199 32.0688 6.24214C33.2183 5.25537 34.4474 4.36547 35.7437 3.58156C37.1729 2.68152 38.7546 2.05034 40.4108 1.71915C41.3311 1.5534 42.2763 1.58742 43.1823 1.81892C44.1557 2.09502 45.0194 2.66634 45.6544 3.45407C46.2718 4.23737 46.7124 5.145 46.9459 6.11465C47.1815 7.06533 47.308 8.03979 47.3228 9.01913C47.3456 10.9857 47.1391 12.9481 46.7076 14.8669C46.2608 16.8558 45.6774 18.8115 44.9615 20.7201C41.9023 28.7054 37.3605 36.04 31.5755 42.3374C30.1947 43.8303 28.7131 45.2267 27.1412 46.5167C25.609 47.7757 23.9348 48.8509 22.1526 49.7205C21.269 50.1463 20.339 50.4681 19.3811 50.6794C18.4107 50.9067 17.4021 50.918 16.4268 50.7127C15.4389 50.4967 14.5422 49.9796 13.8604 49.2327C13.2431 48.5224 12.7873 47.6865 12.5246 46.7828C12.0843 45.1589 11.9435 43.4685 12.1089 41.7942C12.2324 40.2834 12.4808 38.7854 12.8516 37.3155C13.4783 34.8084 14.3164 32.3589 15.357 29.9934C16.1317 28.2142 16.9957 26.4752 17.9455 24.7831C18.7215 23.3863 19.3867 22.3442 19.8523 21.6458C20.3179 20.9474 20.5895 20.6148 20.6338 20.6426Z" fill="url(#paint1_linear)"/>
<path d="M28.1002 14.2626C28.1002 14.3846 26.3376 14.4123 23.1837 14.7171C21.6095 14.8723 19.6861 15.1051 17.4801 15.4931C14.9864 15.9329 12.5308 16.5667 10.1358 17.3888C8.75799 17.8648 7.41984 18.4486 6.13378 19.1348C4.75798 19.8291 3.52021 20.7683 2.48104 21.9063C1.97328 22.4762 1.59508 23.1494 1.37246 23.8795C1.17715 24.6113 1.21198 25.3854 1.47223 26.0967C1.76374 26.8566 2.21559 27.5447 2.79698 28.1143C3.41846 28.7337 4.10835 29.2804 4.85337 29.7439C6.44764 30.7217 8.1495 31.5122 9.92512 32.0996C11.7971 32.7322 13.7102 33.2359 15.6509 33.6073C23.8737 35.1445 32.3101 35.1445 40.5329 33.6073C42.4736 33.238 44.3867 32.7361 46.2587 32.1052C48.0365 31.5188 49.7403 30.7283 51.336 29.7494C52.081 29.2859 52.7709 28.7392 53.3924 28.1198C53.9738 27.5503 54.4256 26.8621 54.7172 26.1022C54.9774 25.391 55.0122 24.6168 54.8169 23.8851C54.5943 23.1549 54.2161 22.4817 53.7083 21.9118C52.6692 20.7738 51.4314 19.8347 50.0556 19.1404C48.7717 18.4497 47.4332 17.8657 46.0536 17.3943C43.6586 16.5722 41.203 15.9384 38.7093 15.4987C36.4922 15.1107 34.5799 14.8779 33.0057 14.7227C29.8518 14.4178 28.0891 14.3901 28.0947 14.2682C28.5106 14.1604 28.9403 14.1156 29.3696 14.1351C30.2065 14.1074 31.4481 14.0908 33.0445 14.1629C34.6408 14.2349 36.5864 14.3846 38.8368 14.7171C41.3954 15.076 43.919 15.6508 46.3806 16.4354C47.8236 16.8979 49.2268 17.4762 50.5766 18.1648C52.0953 18.9046 53.465 19.9173 54.6174 21.1524C55.2476 21.8502 55.7185 22.6767 55.9976 23.5747C56.2732 24.5469 56.2423 25.5805 55.9089 26.5346C55.5689 27.4734 55.0279 28.3266 54.3236 29.0344C53.6421 29.7378 52.8792 30.3575 52.051 30.8802C50.3755 31.9342 48.5821 32.788 46.7077 33.4244C44.7811 34.091 42.8105 34.6225 40.81 35.0152C32.4078 36.6263 23.776 36.6263 15.3738 35.0152C13.3733 34.6225 11.4027 34.091 9.47615 33.4244C7.60173 32.788 5.80837 31.9342 4.1328 30.8802C3.30559 30.3561 2.54284 29.7366 1.86024 29.0344C1.15483 28.3275 0.613585 27.474 0.274946 26.5346C-0.0584564 25.5805 -0.0894118 24.5469 0.186275 23.5747C0.466432 22.6772 0.937233 21.851 1.56645 21.1524C2.71927 19.9178 4.08886 18.9051 5.6072 18.1648C6.95554 17.4747 8.35905 16.898 9.80316 16.441C12.2638 15.6516 14.7877 15.0749 17.347 14.7171C19.5975 14.3957 21.5485 14.246 23.1393 14.1629C24.7301 14.0797 25.9773 14.1074 26.8143 14.1351C27.2469 14.1135 27.6803 14.1565 28.1002 14.2626Z" fill="url(#paint2_linear)"/>
<path d="M34.0403 26.8499C34.4517 24.3209 32.7351 21.9372 30.206 21.5258C27.677 21.1144 25.2933 22.831 24.8819 25.36C24.4705 27.889 26.1871 30.2727 28.7162 30.6842C31.2452 31.0956 33.6289 29.3789 34.0403 26.8499Z" fill="url(#paint3_linear)"/>
<defs>
<linearGradient id="paint0_linear" x1="11.5966" y1="46.5334" x2="48.4898" y2="43.8552" gradientUnits="userSpaceOnUse">
<stop stop-color="#28F5BE"/>
<stop offset="1" stop-color="#3B37FF"/>
</linearGradient>
<linearGradient id="paint1_linear" x1="12.7461" y1="45.7293" x2="49.687" y2="42.8951" gradientUnits="userSpaceOnUse">
<stop stop-color="#28F5BE"/>
<stop offset="1" stop-color="#3B37FF"/>
</linearGradient>
<linearGradient id="paint2_linear" x1="1.12164" y1="33.9198" x2="56.2153" y2="18.9331" gradientUnits="userSpaceOnUse">
<stop stop-color="#28F5BE"/>
<stop offset="1" stop-color="#3B37FF"/>
</linearGradient>
<linearGradient id="paint3_linear" x1="32.3711" y1="31.0911" x2="32.9013" y2="21.3891" gradientUnits="userSpaceOnUse">
<stop stop-color="#28F5BE"/>
<stop offset="1" stop-color="#3B37FF"/>
</linearGradient>
</defs>
</svg>
